<svg width="57" height="57" viewBox="0 0 57 57" fill="none" xmlns="http://www.w3.org/2000/svg">
<path d="M48.0305 56.3837H8.35314C3.72259 56.3837 0 52.6611 0 48.0305V8.35315C0 3.72261 3.72259 0 8.35314 0H48.0305C52.6611 0 56.3837 3.72261 56.3837 8.35315V48.0305C56.3837 52.6611 52.5703 56.3837 48.0305 56.3837Z" fill="#231815"/>
<path d="M27.7833 18.2499C27.7833 18.2499 33.3218 14.8905 36.6812 12.9838C40.0406 11.0771 41.9473 10.4415 43.854 10.26C45.7607 10.1692 47.9398 11.1679 47.9398 11.1679L41.8565 7.35451C41.8565 7.35451 41.0394 6.80974 38.7695 7.08213C36.4996 7.35451 35.3193 7.99008 33.8666 8.71644C32.4139 9.53359 22.6988 15.2537 22.6988 15.2537L27.7833 18.2499Z" fill="white"/>
<path d="M42.3104 15.7075C42.3104 15.7075 45.125 19.6117 42.9459 26.5121C40.7669 33.4125 35.6823 37.3167 35.3192 37.5891C35.0468 37.8615 31.869 39.6774 31.869 39.6774L31.9597 45.1251C31.9597 45.1251 42.1288 41.5841 46.3962 31.7782C50.2095 23.1527 47.7581 18.5221 45.8514 16.5247C44.7618 15.3443 42.3104 15.7075 42.3104 15.7075Z" fill="white"/>
<path d="M27.7833 45.0343L22.6988 42.0381V15.3444L27.7833 18.2498V45.0343Z" fill="white"/>
<path d="M12.2573 37.226L7.17279 34.1389V7.53601L12.1665 10.3507L12.2573 37.226Z" fill="white"/>
<path d="M7.1728 34.139C7.1728 34.139 5.90167 45.3976 15.072 49.4834C20.3381 51.8441 24.2423 50.4821 26.0582 48.6662C27.5109 47.2135 27.6925 45.0344 27.6925 45.0344L22.6079 41.9474C22.6079 41.9474 22.6079 43.037 21.7908 43.8541C20.8828 44.8529 19.4301 45.8516 16.1615 44.2173C11.9849 42.0382 12.1665 37.2261 12.1665 37.2261L7.1728 34.139Z" fill="white"/>
<path d="M12.1666 10.3506L16.2524 8.26236L11.6218 5.72009L7.17288 7.53599L12.1666 10.3506Z" fill="white"/>
</svg>
